<?xml version="1.0" standalone="no"?>
<!DOCTYPE svg PUBLIC "-//W3C//DTD SVG 1.1//EN" "http://www.w3.org/Graphics/SVG/1.1/DTD/svg11.dtd" >
<svg xmlns="http://www.w3.org/2000/svg" xmlns:xlink="http://www.w3.org/1999/xlink" version="1.1" viewBox="-10 0 1034 1024">
  <g transform="matrix(1 0 0 -1 0 880)">
   <path fill="currentColor"
d="M844 -4q-110 -99 -239 -119t-277 27q-147 65 -223 183q-77 117 -78 274q1 79 51 129t122 50t122 -50t50 -122t-50 -122t-122 -50q-69 0 -118 46q20 -81 68 -143q81 -109 198 -155q133 -42 246 -24.5t222 112.5zM180 740q110 99 239 119t277 -27q147 -65 224 -182
q76 -118 74 -268q2 -86 -48 -136t-122 -50t-122 50t-50 122t50 122t122 50q69 0 118 -46q-20 81 -67 144q-82 108 -199 154q-133 42 -246 24.5t-222 -112.5zM107 462q-39 -39 -39 -94t38.5 -93.5t93.5 -38.5t93.5 38.5t38.5 93.5t-38.5 93.5t-93.5 38.5t-93 -38zM918 275
q38 38 38 93t-38.5 93.5t-93.5 38.5t-93.5 -38.5t-38.5 -93.5t38.5 -93.5t93.5 -38.5t94 39z" />
  </g>

</svg>
