<?xml version="1.0" standalone="no"?>
<!DOCTYPE svg PUBLIC "-//W3C//DTD SVG 1.1//EN" "http://www.w3.org/Graphics/SVG/1.1/DTD/svg11.dtd" >
<svg xmlns="http://www.w3.org/2000/svg" xmlns:xlink="http://www.w3.org/1999/xlink" version="1.1" viewBox="-10 0 1034 1024">
  <g transform="matrix(1 0 0 -1 0 880)">
   <path fill="currentColor"
d="M412 288h-1q5 -19 5 -40q0 -57 -39.5 -96.5t-96.5 -39.5t-96.5 39.5t-39.5 96.5t39.5 96.5t96.5 39.5q32 0 58 -12q-19 43 -41 83q-43 77 -41 165q8 108 80 173.5t192 62.5q135 -11 205 -120.5t11 -315.5q-38 -134 -63.5 -204.5t-32.5 -143.5q-5 -62 18.5 -107t77.5 -45
q65 0 100 96l40 -8q-45 -128 -140 -128q-81 0 -114 63t-22 137q5 66 30.5 143t65.5 205q55 203 -9.5 293.5t-162.5 94.5q-112 4 -170.5 -53.5t-61.5 -146.5q-8 -73 35.5 -153.5t76.5 -174.5zM184 248q0 -40 28 -68t68 -28t68 28t28 68t-28 68t-68 28t-68 -28t-28 -68z" />
  </g>

</svg>
