<?xml version="1.0" standalone="no"?>
<!DOCTYPE svg PUBLIC "-//W3C//DTD SVG 1.1//EN" "http://www.w3.org/Graphics/SVG/1.1/DTD/svg11.dtd" >
<svg xmlns="http://www.w3.org/2000/svg" xmlns:xlink="http://www.w3.org/1999/xlink" version="1.1" viewBox="-10 0 1034 1024">
  <g transform="matrix(1 0 0 -1 0 880)">
   <path fill="currentColor"
d="M860 -4q-67 10 -101 56q-25 32 -32 77q-44 -13 -87 -13v40q41 0 84 14v294v140q0 47 -29 70q-29 22 -67 22q-35 0 -67.5 -24.5t-32.5 -67.5v-464h-40v464q0 47 -29 70q-29 22 -67 22q-35 0 -67.5 -24.5t-32.5 -67.5v-464h-40v464q0 43 -20 70q-21 26 -76 26
q-45 0 -73 -45.5t1 -126.5l-36 -18q-40 106 -1.5 168t109.5 62q69 0 103 -37q9 -11 16 -24q8 11 18 20q41 37 99 37q56 0 96 -31q14 -11 23 -26q8 11 18 20q41 37 99 37q56 0 96 -31q40 -29 40 -101v-25q39 38 84 41q65 4 111.5 -38t36.5 -142q-5 -82 -48.5 -149.5
t-119.5 -118.5q-32 -18 -63 -30q5 -42 26 -67q27 -34 69 -39v-40zM800 204q63 36 106.5 99t49.5 137q9 83 -25.5 115.5t-86.5 24.5q-34 -3 -57 -33t-23 -83v-279q18 8 36 19z" />
  </g>

</svg>
